<svg width="21" height="21" viewBox="0 0 21 21" fill="none" xmlns="http://www.w3.org/2000/svg">
<g clip-path="url(#clip0_1039_1872)">
<path d="M4.07227 6.39583V2.64583C4.07227 2.42482 4.16006 2.21286 4.31634 2.05658C4.47262 1.9003 4.68459 1.8125 4.9056 1.8125H16.5723C16.7933 1.8125 17.0052 1.9003 17.1615 2.05658C17.3178 2.21286 17.4056 2.42482 17.4056 2.64583V17.6458C17.4056 17.8668 17.3178 18.0788 17.1615 18.2351C17.0052 18.3914 16.7933 18.4792 16.5723 18.4792H4.9056C4.68459 18.4792 4.47262 18.3914 4.31634 18.2351C4.16006 18.0788 4.07227 17.8668 4.07227 17.6458V13.8958" stroke="white" stroke-width="1.7" stroke-linecap="round" stroke-linejoin="round"/>
<path d="M13.6562 6.39453H14.9062M12.4062 9.72786H14.9062M12.4062 13.0612H14.9062" stroke="white" stroke-width="1.7" stroke-linecap="round"/>
<path d="M4.90625 8.89453L7.40625 11.3945M7.40625 8.89453L4.90625 11.3945M2.40625 6.39453H9.90625V13.8945H2.40625V6.39453Z" stroke="white" stroke-width="1.7" stroke-linecap="round" stroke-linejoin="round"/>
</g>
<defs>
<clipPath id="clip0_1039_1872">
<rect width="20" height="20" fill="white" transform="translate(0.740234 0.144531)"/>
</clipPath>
</defs>
</svg>
