<svg width="14" height="14" viewBox="0 0 14 14" fill="none" xmlns="http://www.w3.org/2000/svg">
<g clip-path="url(#clip0_1046_1827)">
<path d="M6.55757 3.16108L7.57319 2.14546C7.83727 1.88138 8.15078 1.6719 8.49582 1.52898C8.84086 1.38606 9.21066 1.3125 9.58413 1.3125C9.95759 1.3125 10.3274 1.38606 10.6724 1.52898C11.0175 1.6719 11.331 1.88138 11.5951 2.14546C11.8591 2.40954 12.0686 2.72305 12.2115 3.06808C12.3545 3.41312 12.428 3.78293 12.428 4.1564C12.428 4.52986 12.3545 4.89967 12.2115 5.24471C12.0686 5.58974 11.8591 5.90325 11.5951 6.16733L9.56382 8.19858C9.29975 8.46268 8.98624 8.67217 8.6412 8.8151C8.29616 8.95803 7.92635 9.0316 7.55288 9.0316C7.17941 9.0316 6.80959 8.95803 6.46456 8.8151C6.11952 8.67217 5.80601 8.46268 5.54194 8.19858C5.43417 8.08309 5.37546 7.93026 5.37819 7.77232C5.38092 7.61437 5.44487 7.46366 5.55657 7.35196C5.66827 7.24026 5.81898 7.17631 5.97692 7.17358C6.13487 7.17085 6.2877 7.22956 6.40319 7.33733C6.55411 7.48842 6.73333 7.60828 6.9306 7.69005C7.12787 7.77183 7.33933 7.81392 7.55288 7.81392C7.76643 7.81392 7.97789 7.77183 8.17516 7.69005C8.37243 7.60828 8.55165 7.48842 8.70257 7.33733L10.7338 5.30608C11.0239 4.99819 11.1826 4.5894 11.1763 4.16642C11.17 3.74345 10.9992 3.33957 10.7001 3.04045C10.401 2.74133 9.99707 2.5705 9.5741 2.5642C9.15113 2.5579 8.74234 2.71663 8.43444 3.00671L7.41882 4.02233C7.30332 4.1301 7.15049 4.18882 6.99255 4.18609C6.83461 4.18336 6.68389 4.1194 6.57219 4.00771C6.4605 3.89601 6.39654 3.74529 6.39381 3.58735C6.39108 3.42941 6.4498 3.27658 6.55757 3.16108ZM2.74694 10.9936C2.89786 11.1447 3.07708 11.2645 3.27435 11.3463C3.47162 11.4281 3.68308 11.4702 3.89663 11.4702C4.11018 11.4702 4.32164 11.4281 4.51891 11.3463C4.71618 11.2645 4.8954 11.1447 5.04632 10.9936L6.06194 9.97796C6.17743 9.87019 6.33027 9.81147 6.48821 9.8142C6.64615 9.81693 6.79686 9.88089 6.90857 9.99258C7.02026 10.1043 7.08422 10.255 7.08695 10.4129C7.08968 10.5709 7.03096 10.7237 6.92319 10.8392L5.90757 11.8548C5.64349 12.1189 5.32998 12.3284 4.98494 12.4713C4.6399 12.6142 4.2701 12.6878 3.89663 12.6878C3.52316 12.6878 3.15336 12.6142 2.80832 12.4713C2.46328 12.3284 2.14977 12.1189 1.88569 11.8548C1.62161 11.5908 1.41213 11.2772 1.26921 10.9322C1.12629 10.5872 1.05273 10.2174 1.05273 9.84389C1.05273 9.47043 1.12629 9.10062 1.26921 8.75558C1.41213 8.41055 1.62161 8.09704 1.88569 7.83296L3.91694 5.80171C4.18101 5.53761 4.49452 5.32812 4.83956 5.18519C5.18459 5.04226 5.55441 4.96869 5.92788 4.96869C6.30135 4.96869 6.67116 5.04226 7.0162 5.18519C7.36124 5.32812 7.67475 5.53761 7.93882 5.80171C8.04659 5.9172 8.1053 6.07003 8.10257 6.22798C8.09984 6.38592 8.03589 6.53663 7.92419 6.64833C7.81249 6.76003 7.66178 6.82398 7.50383 6.82671C7.34589 6.82944 7.19306 6.77073 7.07757 6.66296C6.92665 6.51187 6.74743 6.39201 6.55016 6.31024C6.35289 6.22846 6.14143 6.18637 5.92788 6.18637C5.71433 6.18637 5.50287 6.22846 5.3056 6.31024C5.10833 6.39201 4.92911 6.51187 4.77819 6.66296L2.74694 8.69421C2.59586 8.84513 2.476 9.02434 2.39422 9.22162C2.31244 9.41889 2.27035 9.63034 2.27035 9.84389C2.27035 10.0574 2.31244 10.2689 2.39422 10.4662C2.476 10.6634 2.59586 10.8427 2.74694 10.9936Z" fill="white" stroke="white" stroke-width="0.3"/>
</g>
<defs>
<clipPath id="clip0_1046_1827">
<rect width="13" height="13" fill="white" transform="translate(0.240234 0.5)"/>
</clipPath>
</defs>
</svg>
