<svg width="16" height="16" viewBox="0 0 16 16" fill="none" xmlns="http://www.w3.org/2000/svg">
<g clip-path="url(#clip0_1039_3098)">
<path d="M6.10738 5.792L7.73113 2.522C7.7784 2.42736 7.85109 2.34776 7.94106 2.29213C8.03103 2.2365 8.13472 2.20703 8.24051 2.20703C8.34629 2.20703 8.44998 2.2365 8.53995 2.29213C8.62992 2.34776 8.70261 2.42736 8.74988 2.522L10.3736 5.792L14.0036 6.3195C14.1083 6.33401 14.2068 6.37768 14.2879 6.4455C14.369 6.51333 14.4294 6.60258 14.4622 6.70307C14.4949 6.80357 14.4988 6.91125 14.4733 7.01384C14.4478 7.11643 14.394 7.20978 14.318 7.28325L11.6918 9.82699L12.3118 13.4207C12.3911 13.882 11.9036 14.2332 11.4868 14.0157L8.24051 12.3182L4.99363 14.0157C4.57738 14.2339 4.08988 13.882 4.16926 13.4201L4.78926 9.82637L2.16301 7.28262C2.08737 7.2091 2.03388 7.11584 2.00861 7.01344C1.98334 6.91104 1.9873 6.8036 2.02005 6.70334C2.0528 6.60307 2.11302 6.51401 2.19386 6.44627C2.27471 6.37852 2.37293 6.33482 2.47738 6.32012L6.10738 5.792Z" fill="#FBBC05" stroke="#FBBC05" stroke-width="1.5" stroke-linecap="round" stroke-linejoin="round"/>
</g>
<defs>
<clipPath id="clip0_1039_3098">
<rect width="15" height="15" fill="white" transform="translate(0.740234 0.644531)"/>
</clipPath>
</defs>
</svg>
