<svg width="31" height="31" viewBox="0 0 31 31" fill="none" xmlns="http://www.w3.org/2000/svg">
<g opacity="0.5" clip-path="url(#clip0_1818_3866)">
<path d="M7.72156 15.7383C7.72175 15.4402 7.84026 15.1543 8.05106 14.9435C8.26187 14.7327 8.54773 14.6142 8.84586 14.614L14.6148 14.6129L14.6158 8.84399C14.6159 8.69635 14.6449 8.55015 14.7014 8.41374C14.7579 8.27733 14.8407 8.15339 14.9451 8.04899C15.0495 7.94459 15.1735 7.86177 15.3099 7.80527C15.4463 7.74877 15.5925 7.71969 15.7401 7.71969C15.8878 7.71969 16.034 7.74877 16.1704 7.80527C16.3068 7.86177 16.4307 7.94459 16.5351 8.04899C16.6396 8.15339 16.7224 8.27733 16.7789 8.41374C16.8354 8.55015 16.8644 8.69635 16.8644 8.84399L16.8655 14.6129L22.6344 14.614C22.9326 14.614 23.2186 14.7324 23.4294 14.9433C23.6403 15.1541 23.7587 15.4401 23.7587 15.7383C23.7587 16.0365 23.6403 16.3224 23.4294 16.5333C23.2186 16.7441 22.9326 16.8626 22.6344 16.8626L16.8655 16.8636L16.8644 22.6326C16.8644 22.9308 16.746 23.2167 16.5351 23.4276C16.3243 23.6384 16.0383 23.7569 15.7401 23.7569C15.442 23.7569 15.156 23.6384 14.9451 23.4276C14.7343 23.2167 14.6159 22.9308 14.6158 22.6326L14.6148 16.8636L8.84586 16.8626C8.54773 16.8624 8.26187 16.7439 8.05106 16.5331C7.84026 16.3223 7.72175 16.0364 7.72156 15.7383Z" fill="white"/>
</g>
<circle cx="15.7402" cy="15.7383" r="14" stroke="white" stroke-opacity="0.5" stroke-width="2"/>
<defs>
<clipPath id="clip0_1818_3866">
<rect width="18" height="18" fill="white" transform="translate(3.01172 15.7383) rotate(-45)"/>
</clipPath>
</defs>
</svg>
