<svg width="19" height="19" viewBox="0 0 19 19" fill="none" xmlns="http://www.w3.org/2000/svg">
<path fill-rule="evenodd" clip-rule="evenodd" d="M1.17941 0.922776C1.46071 0.64157 1.84217 0.483596 2.23991 0.483596C2.63766 0.483596 3.01912 0.64157 3.30041 0.922776L9.73991 7.36228L16.1794 0.922776C16.3178 0.779511 16.4833 0.665238 16.6663 0.586624C16.8493 0.508011 17.0461 0.466631 17.2453 0.4649C17.4445 0.46317 17.642 0.501122 17.8263 0.576543C18.0107 0.651965 18.1782 0.763344 18.319 0.904183C18.4598 1.04502 18.5712 1.2125 18.6466 1.39684C18.7221 1.58119 18.76 1.77871 18.7583 1.97788C18.7566 2.17705 18.7152 2.37388 18.6366 2.55688C18.558 2.73989 18.4437 2.90541 18.3004 3.04378L11.8609 9.48328L18.3004 15.9228C18.5736 16.2057 18.7248 16.5846 18.7214 16.9779C18.718 17.3712 18.5603 17.7474 18.2821 18.0255C18.004 18.3036 17.6278 18.4614 17.2345 18.4648C16.8412 18.4682 16.4623 18.317 16.1794 18.0438L9.73991 11.6043L3.30041 18.0438C3.01751 18.317 2.63861 18.4682 2.24531 18.4648C1.85202 18.4614 1.4758 18.3036 1.19769 18.0255C0.919574 17.7474 0.76182 17.3712 0.758403 16.9779C0.754985 16.5846 0.906177 16.2057 1.17941 15.9228L7.61891 9.48328L1.17941 3.04378C0.898208 2.76248 0.740234 2.38102 0.740234 1.98328C0.740234 1.58553 0.898208 1.20407 1.17941 0.922776Z" fill="#979CA4"/>
</svg>
