<svg width="21" height="21" viewBox="0 0 21 21" fill="none" xmlns="http://www.w3.org/2000/svg">
<path fill-rule="evenodd" clip-rule="evenodd" d="M15.1145 9.39379C15.1145 10.1325 14.969 10.8639 14.6863 11.5464C14.4036 12.2288 13.9893 12.8489 13.467 13.3713C12.9446 13.8936 12.3245 14.3079 11.6421 14.5906C10.9596 14.8733 10.2282 15.0188 9.4895 15.0188C8.75081 15.0188 8.01936 14.8733 7.3369 14.5906C6.65444 14.3079 6.03435 13.8936 5.51202 13.3713C4.98969 12.8489 4.57536 12.2288 4.29267 11.5464C4.00999 10.8639 3.8645 10.1325 3.8645 9.39379C3.8645 7.90195 4.45713 6.47121 5.51202 5.41632C6.56691 4.36142 7.99765 3.76879 9.4895 3.76879C10.9813 3.76879 12.4121 4.36142 13.467 5.41632C14.5219 6.47121 15.1145 7.90195 15.1145 9.39379ZM14.0895 15.3188C12.5825 16.4888 10.6862 17.0404 8.78675 16.8615C6.88729 16.6825 5.12743 15.7864 3.86543 14.3555C2.60344 12.9247 1.93418 11.0667 1.99391 9.15973C2.05364 7.25279 2.83787 5.4403 4.18694 4.09123C5.53601 2.74217 7.3485 1.95794 9.25543 1.89821C11.1624 1.83848 13.0204 2.50774 14.4512 3.76973C15.8821 5.03172 16.7782 6.79158 16.9572 8.69104C17.1361 10.5905 16.5845 12.4868 15.4145 13.9938L18.902 17.4813C18.9941 17.5671 19.068 17.6706 19.1192 17.7856C19.1705 17.9006 19.198 18.0248 19.2002 18.1506C19.2025 18.2765 19.1793 18.4016 19.1321 18.5183C19.085 18.635 19.0148 18.7411 18.9258 18.8301C18.8368 18.9191 18.7307 18.9893 18.614 19.0364C18.4973 19.0836 18.3722 19.1068 18.2463 19.1045C18.1205 19.1023 17.9963 19.0748 17.8813 19.0235C17.7663 18.9723 17.6628 18.8984 17.577 18.8063L14.0895 15.3188Z" fill="white"/>
</svg>
