<svg width="27" height="27" viewBox="0 0 27 27" fill="none" xmlns="http://www.w3.org/2000/svg">
<path d="M9.47453 8.79493L12.722 2.25493C12.8166 2.06566 12.9619 1.90647 13.1419 1.7952C13.3218 1.68394 13.5292 1.625 13.7408 1.625C13.9523 1.625 14.1597 1.68394 14.3397 1.7952C14.5196 1.90647 14.665 2.06566 14.7595 2.25493L18.007 8.79493L25.267 9.84993C25.4764 9.87896 25.6735 9.96629 25.8356 10.1019C25.9978 10.2376 26.1185 10.4161 26.1841 10.6171C26.2496 10.8181 26.2574 11.0334 26.2064 11.2386C26.1554 11.4438 26.0478 11.6305 25.8958 11.7774L20.6433 16.8649L21.8833 24.0524C22.042 24.9749 21.067 25.6774 20.2333 25.2424L13.7408 21.8474L7.24703 25.2424C6.41453 25.6787 5.43953 24.9749 5.59828 24.0512L6.83828 16.8637L1.58578 11.7762C1.43451 11.6291 1.32752 11.4426 1.27698 11.2378C1.22644 11.033 1.23437 10.8181 1.29986 10.6176C1.36536 10.4171 1.4858 10.239 1.64749 10.1035C1.80918 9.96798 2.00563 9.88057 2.21453 9.85118L9.47453 8.79493Z" fill="#FBBC05" stroke="#FBBC05" stroke-width="1.5" stroke-linecap="round" stroke-linejoin="round"/>
</svg>
