<svg width="60" height="54" viewBox="0 0 60 54" fill="none" xmlns="http://www.w3.org/2000/svg">
<path d="M2.976 54C2.18644 53.9992 1.42949 53.685 0.871468 53.1264C0.313446 52.5678 -4.00365e-07 51.8106 0 51.021V2.979C0.00549013 2.19113 0.320701 1.43705 0.877539 0.879653C1.43438 0.322254 2.18814 0.00628395 2.976 0H57.024C58.668 0 60 1.335 60 2.979V51.021C59.9945 51.8089 59.6793 52.563 59.1225 53.1203C58.5656 53.6777 57.8119 53.9937 57.024 54H2.976ZM54 36V6H6V48L36 18L54 36ZM54 44.484L36 26.484L14.484 48H54V44.484ZM18 24C16.4087 24 14.8826 23.3679 13.7574 22.2426C12.6321 21.1174 12 19.5913 12 18C12 16.4087 12.6321 14.8826 13.7574 13.7574C14.8826 12.6321 16.4087 12 18 12C19.5913 12 21.1174 12.6321 22.2426 13.7574C23.3679 14.8826 24 16.4087 24 18C24 19.5913 23.3679 21.1174 22.2426 22.2426C21.1174 23.3679 19.5913 24 18 24Z" fill="#EEEEEE"/>
</svg>
