<svg width="70" height="62" viewBox="0 0 70 62" fill="none" xmlns="http://www.w3.org/2000/svg">
<path d="M49.4444 16.464H63.8889C64.8466 16.464 65.7651 16.8444 66.4423 17.5216C67.1195 18.1989 67.5 19.1174 67.5 20.0751V59.7973L55.4642 49.7981C54.8147 49.259 53.9971 48.9639 53.1531 48.964H24.1667C23.2089 48.964 22.2904 48.5835 21.6132 47.9063C20.936 47.2291 20.5556 46.3106 20.5556 45.3529V34.5195M49.4444 16.464V5.63064C49.4444 4.67292 49.064 3.75442 48.3868 3.0772C47.7096 2.39999 46.7911 2.01953 45.8333 2.01953H6.11111C5.15338 2.01953 4.23488 2.39999 3.55767 3.0772C2.88046 3.75442 2.5 4.67292 2.5 5.63064V45.3529L14.5358 35.3501C15.1858 34.8156 16.0019 34.5195 16.8469 34.5195H20.5556M49.4444 16.464V30.9084C49.4444 31.8661 49.064 32.7846 48.3868 33.4619C47.7096 34.1391 46.7911 34.5195 45.8333 34.5195H20.5556" stroke="white" stroke-width="4" stroke-linecap="round" stroke-linejoin="round"/>
</svg>
