<svg width="17" height="20" viewBox="0 0 17 20" fill="none" xmlns="http://www.w3.org/2000/svg">
<path d="M1.07422 2.60625C1.07422 2.11394 1.26979 1.6418 1.6179 1.29368C1.96602 0.945569 2.43816 0.75 2.93047 0.75H10.3555C10.6016 0.750053 10.8376 0.847871 11.0117 1.02194L15.6523 5.66257C15.8263 5.83658 15.9242 6.07262 15.9242 6.31875V17.4563C15.9242 17.9486 15.7287 18.4207 15.3805 18.7688C15.0324 19.1169 14.5603 19.3125 14.068 19.3125H2.93047C2.43816 19.3125 1.96602 19.1169 1.6179 18.7688C1.26979 18.4207 1.07422 17.9486 1.07422 17.4563V2.60625ZM13.6837 6.31875L10.3555 2.99049V6.31875H13.6837ZM8.49922 2.60625H2.93047V17.4563H14.068V8.175H9.42734C9.18119 8.175 8.94512 8.07722 8.77106 7.90316C8.597 7.7291 8.49922 7.49303 8.49922 7.24688V2.60625ZM4.78672 10.9594C4.78672 10.7132 4.8845 10.4771 5.05856 10.3031C5.23262 10.129 5.46869 10.0313 5.71484 10.0313H11.2836C11.5297 10.0313 11.7658 10.129 11.9399 10.3031C12.1139 10.4771 12.2117 10.7132 12.2117 10.9594C12.2117 11.2055 12.1139 11.4416 11.9399 11.6157C11.7658 11.7897 11.5297 11.8875 11.2836 11.8875H5.71484C5.46869 11.8875 5.23262 11.7897 5.05856 11.6157C4.8845 11.4416 4.78672 11.2055 4.78672 10.9594ZM4.78672 14.6719C4.78672 14.4257 4.8845 14.1896 5.05856 14.0156C5.23262 13.8415 5.46869 13.7438 5.71484 13.7438H11.2836C11.5297 13.7438 11.7658 13.8415 11.9399 14.0156C12.1139 14.1896 12.2117 14.4257 12.2117 14.6719C12.2117 14.918 12.1139 15.1541 11.9399 15.3282C11.7658 15.5022 11.5297 15.6 11.2836 15.6H5.71484C5.46869 15.6 5.23262 15.5022 5.05856 15.3282C4.8845 15.1541 4.78672 14.918 4.78672 14.6719Z" fill="white" stroke="black" stroke-width="0.5"/>
</svg>
