<svg width="55" height="70" viewBox="0 0 55 70" fill="none" xmlns="http://www.w3.org/2000/svg">
<path d="M30.8312 2.73047H13.6883C9.68834 2.73047 7.68834 2.73047 6.15977 3.50904C4.81566 4.19364 3.72294 5.28637 3.03834 6.63047C2.25977 8.15904 2.25977 10.159 2.25977 14.159V55.5876C2.25977 59.5876 2.25977 61.5876 3.03834 63.1162C3.72314 64.4601 4.81581 65.5528 6.15977 66.2376C7.68477 67.0162 9.68476 67.0162 13.6776 67.0162H40.8419C44.8348 67.0162 46.8312 67.0162 48.3562 66.2376C49.7026 65.5519 50.7955 64.459 51.4812 63.1162C52.2598 61.5876 52.2598 59.5948 52.2598 55.6019V24.159M30.8312 2.73047C31.8526 2.74118 32.4955 2.78047 33.1133 2.9269C33.8419 3.10547 34.5383 3.39118 35.1776 3.78404C35.8991 4.2269 36.5169 4.84475 37.7491 6.08047L48.9133 17.2412C50.1491 18.4769 50.7633 19.0912 51.2062 19.8126C51.5991 20.4555 51.8848 21.1483 52.0633 21.8769C52.2062 22.4948 52.2491 23.1412 52.2598 24.159M30.8312 2.73047V12.7305C30.8312 16.7305 30.8312 18.7305 31.6098 20.259C32.2946 21.603 33.3872 22.6957 34.7312 23.3805C36.2562 24.159 38.2562 24.159 42.2491 24.159H52.2598" fill="#392F4F"/>
<path d="M18.1603 49.4834H37.7498M30.8312 2.73047H13.6883C9.68834 2.73047 7.68834 2.73047 6.15977 3.50904C4.81566 4.19364 3.72294 5.28637 3.03834 6.63047C2.25977 8.15904 2.25977 10.159 2.25977 14.159V55.5876C2.25977 59.5876 2.25977 61.5876 3.03834 63.1162C3.72314 64.4601 4.81581 65.5528 6.15977 66.2376C7.68477 67.0162 9.68476 67.0162 13.6776 67.0162H40.8419C44.8348 67.0162 46.8312 67.0162 48.3562 66.2376C49.7026 65.5519 50.7955 64.459 51.4812 63.1162C52.2598 61.5876 52.2598 59.5948 52.2598 55.6019V24.159M30.8312 2.73047C31.8526 2.74118 32.4955 2.78047 33.1133 2.9269C33.8419 3.10547 34.5383 3.39118 35.1776 3.78404C35.8991 4.2269 36.5169 4.84475 37.7491 6.08047L48.9133 17.2412C50.149 18.4769 50.7633 19.0912 51.2062 19.8126C51.5991 20.4555 51.8848 21.1483 52.0633 21.8769C52.2062 22.4948 52.2491 23.1412 52.2598 24.159M30.8312 2.73047V12.7305C30.8312 16.7305 30.8312 18.7305 31.6098 20.259C32.2946 21.603 33.3872 22.6957 34.7312 23.3805C36.2562 24.159 38.2562 24.159 42.2491 24.159H52.2598M18.1603 36.6782H37.7498" stroke="white" stroke-width="4" stroke-linecap="round" stroke-linejoin="round"/>
</svg>
