<svg width="25" height="25" viewBox="0 0 25 25" fill="none" xmlns="http://www.w3.org/2000/svg">
<path fill-rule="evenodd" clip-rule="evenodd" d="M1.48206 1.23167C1.85711 0.856728 2.36573 0.646097 2.89606 0.646097C3.42639 0.646097 3.935 0.856728 4.31006 1.23167L12.8961 9.81767L21.4821 1.23167C21.6666 1.04065 21.8872 0.888285 22.1312 0.783467C22.3753 0.678649 22.6377 0.623477 22.9033 0.621169C23.1688 0.618862 23.4322 0.669465 23.678 0.770026C23.9238 0.870588 24.1471 1.01909 24.3348 1.20688C24.5226 1.39467 24.6711 1.61797 24.7717 1.86376C24.8723 2.10955 24.9229 2.37291 24.9206 2.63847C24.9183 2.90403 24.8631 3.16647 24.7583 3.41048C24.6534 3.65449 24.5011 3.87518 24.3101 4.05967L15.7241 12.6457L24.3101 21.2317C24.6744 21.6089 24.876 22.1141 24.8714 22.6385C24.8668 23.1629 24.6565 23.6645 24.2857 24.0353C23.9149 24.4061 23.4133 24.6165 22.8889 24.621C22.3645 24.6256 21.8593 24.424 21.4821 24.0597L12.8961 15.4737L4.31006 24.0597C3.93285 24.424 3.42765 24.6256 2.90325 24.621C2.37886 24.6165 1.87724 24.4061 1.50642 24.0353C1.1356 23.6645 0.925265 23.1629 0.920709 22.6385C0.916152 22.1141 1.11774 21.6089 1.48206 21.2317L10.0681 12.6457L1.48206 4.05967C1.10712 3.68461 0.896484 3.176 0.896484 2.64567C0.896484 2.11534 1.10712 1.60673 1.48206 1.23167Z" fill="#1E0E3B"/>
</svg>
