<svg width="19" height="18" viewBox="0 0 19 18" fill="none" xmlns="http://www.w3.org/2000/svg">
<path d="M13.2778 5.22211H17.0556C17.306 5.22211 17.5463 5.32162 17.7234 5.49874C17.9005 5.67585 18 5.91608 18 6.16656V16.5554L14.8522 13.9403C14.6823 13.7993 14.4685 13.7221 14.2477 13.7221H6.66667C6.41618 13.7221 6.17596 13.6226 5.99884 13.4455C5.82173 13.2684 5.72222 13.0282 5.72222 12.7777V9.94434M13.2778 5.22211V2.38878C13.2778 2.1383 13.1783 1.89808 13.0012 1.72096C12.824 1.54384 12.5838 1.44434 12.3333 1.44434H1.94444C1.69396 1.44434 1.45374 1.54384 1.27662 1.72096C1.0995 1.89808 1 2.1383 1 2.38878V12.7777L4.14783 10.1616C4.31783 10.0218 4.53128 9.94434 4.75228 9.94434H5.72222M13.2778 5.22211V8.99989C13.2778 9.25037 13.1783 9.4906 13.0012 9.66771C12.824 9.84483 12.5838 9.94434 12.3333 9.94434H5.72222" stroke="white" stroke-width="1.5" stroke-linecap="round" stroke-linejoin="round"/>
</svg>
