<svg width="21" height="20" viewBox="0 0 21 20" fill="none" xmlns="http://www.w3.org/2000/svg">
<path d="M16.2617 13.3333H14.2617V15.5556H16.2617M16.2617 8.88889H14.2617V11.1111H16.2617M18.2617 17.7778H10.2617V15.5556H12.2617V13.3333H10.2617V11.1111H12.2617V8.88889H10.2617V6.66667H18.2617M8.26172 4.44444H6.26172V2.22222H8.26172M8.26172 8.88889H6.26172V6.66667H8.26172M8.26172 13.3333H6.26172V11.1111H8.26172M8.26172 17.7778H6.26172V15.5556H8.26172M4.26172 4.44444H2.26172V2.22222H4.26172M4.26172 8.88889H2.26172V6.66667H4.26172M4.26172 13.3333H2.26172V11.1111H4.26172M4.26172 17.7778H2.26172V15.5556H4.26172M10.2617 4.44444V0H0.261719V20H20.2617V4.44444H10.2617Z" fill="white"/>
</svg>
