<svg width="61" height="61" viewBox="0 0 61 61" fill="none" xmlns="http://www.w3.org/2000/svg">
<path fill-rule="evenodd" clip-rule="evenodd" d="M20.7773 18.3633C20.7773 15.7111 21.8309 13.1676 23.7063 11.2922C25.5816 9.41685 28.1252 8.36328 30.7773 8.36328C33.4295 8.36328 35.973 9.41685 37.8484 11.2922C39.7238 13.1676 40.7773 15.7111 40.7773 18.3633C40.7773 21.0154 39.7238 23.559 37.8484 25.4343C35.973 27.3097 33.4295 28.3633 30.7773 28.3633C28.1252 28.3633 25.5816 27.3097 23.7063 25.4343C21.8309 23.559 20.7773 21.0154 20.7773 18.3633ZM20.7773 33.3633C17.4621 33.3633 14.2827 34.6802 11.9385 37.0244C9.5943 39.3687 8.27734 42.5481 8.27734 45.8633C8.27734 47.8524 9.06752 49.7601 10.474 51.1666C11.8806 52.5731 13.7882 53.3633 15.7773 53.3633H45.7773C47.7665 53.3633 49.6741 52.5731 51.0806 51.1666C52.4872 49.7601 53.2773 47.8524 53.2773 45.8633C53.2773 42.5481 51.9604 39.3687 49.6162 37.0244C47.272 34.6802 44.0925 33.3633 40.7773 33.3633H20.7773Z" fill="#1F1632"/>
</svg>
