<svg width="21" height="20" viewBox="0 0 21 20" fill="none" xmlns="http://www.w3.org/2000/svg">
<path d="M10.5938 0C9.28053 0 7.98017 0.265079 6.76692 0.780103C5.55366 1.29513 4.45127 2.05001 3.52268 3.00165C1.64732 4.92357 0.59375 7.53026 0.59375 10.2483C0.59375 14.778 3.46375 18.6211 7.43375 19.9841C7.93375 20.0661 8.09375 19.7484 8.09375 19.4717V17.7398C5.32375 18.3547 4.73375 16.3665 4.73375 16.3665C4.27375 15.1777 3.62375 14.86 3.62375 14.86C2.71375 14.2246 3.69375 14.2451 3.69375 14.2451C4.69375 14.3168 5.22375 15.3007 5.22375 15.3007C6.09375 16.8584 7.56375 16.3972 8.13375 16.1513C8.22375 15.4851 8.48375 15.0342 8.76375 14.778C6.54375 14.5218 4.21375 13.6404 4.21375 9.73586C4.21375 8.5983 4.59375 7.6862 5.24375 6.95858C5.14375 6.70237 4.79375 5.63655 5.34375 4.25303C5.34375 4.25303 6.18375 3.97633 8.09375 5.29836C8.88375 5.07289 9.74375 4.96016 10.5938 4.96016C11.4438 4.96016 12.3038 5.07289 13.0938 5.29836C15.0037 3.97633 15.8438 4.25303 15.8438 4.25303C16.3938 5.63655 16.0438 6.70237 15.9438 6.95858C16.5938 7.6862 16.9737 8.5983 16.9737 9.73586C16.9737 13.6507 14.6338 14.5115 12.4038 14.7678C12.7638 15.0855 13.0938 15.7106 13.0938 16.6637V19.4717C13.0938 19.7484 13.2537 20.0764 13.7638 19.9841C17.7337 18.6109 20.5938 14.778 20.5938 10.2483C20.5938 8.90245 20.3351 7.5698 19.8325 6.32643C19.33 5.08305 18.5934 3.95329 17.6648 3.00165C16.7362 2.05001 15.6338 1.29513 14.4206 0.780103C13.2073 0.265079 11.907 0 10.5938 0Z" fill="white"/>
</svg>
