<svg width="23" height="13" viewBox="0 0 23 13" fill="none" xmlns="http://www.w3.org/2000/svg">
<path d="M8.96875 9.99219V6.91406H4.57031V9.97656C4.57031 10.1589 4.57552 10.3203 4.58594 10.4609C4.60156 10.5964 4.6224 10.7188 4.64844 10.8281C4.7474 10.8438 4.84635 10.8542 4.94531 10.8594C5.04427 10.8594 5.15104 10.8594 5.26562 10.8594H6.02344V12.1016C5.54948 12.0599 5.10417 12.0312 4.6875 12.0156C4.27604 12.0052 3.8776 12 3.49219 12C3.02865 12 2.55469 12.0052 2.07031 12.0156C1.59115 12.0312 1.08333 12.0599 0.546875 12.1016V10.8594H1.35156C1.47135 10.8594 1.58333 10.8594 1.6875 10.8594C1.79167 10.8542 1.89323 10.8438 1.99219 10.8281C2.04948 10.625 2.07812 10.3464 2.07812 9.99219L2.0625 2.99219C2.0625 2.8099 2.05469 2.65104 2.03906 2.51562C2.02344 2.38021 2.0026 2.26042 1.97656 2.15625C1.88281 2.13542 1.78125 2.125 1.67188 2.125C1.56771 2.11979 1.45573 2.11719 1.33594 2.11719H0.53125V1.0625C0.979167 1.01042 1.41927 0.973958 1.85156 0.953125C2.28906 0.927083 2.74219 0.914062 3.21094 0.914062C3.77865 0.914062 4.29948 0.921875 4.77344 0.9375C5.2474 0.953125 5.66406 0.986979 6.02344 1.03906V2.11719H5.25C5.14062 2.11719 5.03385 2.11979 4.92969 2.125C4.83073 2.125 4.73177 2.13542 4.63281 2.15625C4.58594 2.35938 4.5625 2.61719 4.5625 2.92969L4.57031 5.6875H8.96875L8.96094 2.99219C8.95573 2.8099 8.94531 2.65104 8.92969 2.51562C8.91927 2.38021 8.90104 2.26042 8.875 2.15625C8.78646 2.13542 8.6901 2.125 8.58594 2.125C8.48177 2.11979 8.375 2.11719 8.26562 2.11719H7.5V1.0625C7.95312 1.01042 8.39583 0.973958 8.82812 0.953125C9.26562 0.927083 9.71615 0.914062 10.1797 0.914062C10.7526 0.914062 11.2734 0.921875 11.7422 0.9375C12.2161 0.953125 12.6354 0.986979 13 1.03906V2.11719H12.1719C12.0521 2.11719 11.9401 2.11979 11.8359 2.125C11.7318 2.125 11.6302 2.13542 11.5312 2.15625C11.5052 2.26042 11.4844 2.38021 11.4688 2.51562C11.4583 2.65104 11.4531 2.8099 11.4531 2.99219L11.4609 9.97656C11.4609 10.1589 11.4661 10.3203 11.4766 10.4609C11.4922 10.5964 11.513 10.7188 11.5391 10.8281C11.638 10.8438 11.7396 10.8542 11.8438 10.8594C11.9479 10.8594 12.0599 10.8594 12.1797 10.8594H12.9922V12.1016C12.5443 12.0599 12.125 12.0312 11.7344 12.0156C11.3438 12.0052 10.9661 12 10.6016 12H10.0938C9.69271 12 9.28125 12.0052 8.85938 12.0156C8.4375 12.0312 7.98958 12.0599 7.51562 12.1016V10.8594H8.26562C8.38021 10.8594 8.48958 10.8594 8.59375 10.8594C8.69792 10.8542 8.79427 10.8438 8.88281 10.8281C8.91406 10.7344 8.9349 10.6198 8.94531 10.4844C8.96094 10.3438 8.96875 10.1797 8.96875 9.99219ZM19.8438 3.51562C19.8438 3.26042 19.7969 3.03906 19.7031 2.85156C19.6094 2.65885 19.4818 2.5 19.3203 2.375C19.1589 2.24479 18.9714 2.14844 18.7578 2.08594C18.5495 2.01823 18.3281 1.98438 18.0938 1.98438C17.8438 1.98438 17.5938 2.02604 17.3438 2.10938C17.0938 2.19271 16.862 2.31771 16.6484 2.48438C16.4401 2.64583 16.2578 2.84896 16.1016 3.09375C15.9453 3.33854 15.8333 3.61979 15.7656 3.9375L14.2734 2.86719C14.3984 2.51823 14.5781 2.21354 14.8125 1.95312C15.0521 1.69271 15.3333 1.47656 15.6562 1.30469C15.9792 1.13281 16.3411 1.00521 16.7422 0.921875C17.1432 0.833333 17.5729 0.789062 18.0312 0.789062C18.5365 0.789062 19.0208 0.846354 19.4844 0.960938C19.9479 1.07031 20.3568 1.24219 20.7109 1.47656C21.0651 1.70573 21.3464 1.99479 21.5547 2.34375C21.7682 2.69271 21.875 3.10156 21.875 3.57031C21.875 3.88281 21.8125 4.17448 21.6875 4.44531C21.5677 4.71615 21.3932 4.96094 21.1641 5.17969C20.9401 5.39323 20.6667 5.58073 20.3438 5.74219C20.0208 5.89844 19.6562 6.02083 19.25 6.10938C19.724 6.17188 20.1484 6.28125 20.5234 6.4375C20.8984 6.59375 21.2135 6.79688 21.4688 7.04688C21.7292 7.29167 21.9271 7.58333 22.0625 7.92188C22.1979 8.26042 22.2656 8.64323 22.2656 9.07031C22.2656 9.5651 22.1667 10.0104 21.9688 10.4062C21.7708 10.8021 21.4922 11.138 21.1328 11.4141C20.7734 11.6901 20.3385 11.901 19.8281 12.0469C19.3229 12.1979 18.7604 12.2734 18.1406 12.2734C17.75 12.2734 17.3698 12.2422 17 12.1797C16.6354 12.1172 16.2891 12.0312 15.9609 11.9219C15.638 11.8073 15.3438 11.6745 15.0781 11.5234C14.8125 11.3724 14.5859 11.2057 14.3984 11.0234C14.4036 10.8828 14.4089 10.737 14.4141 10.5859C14.4193 10.4349 14.4271 10.2734 14.4375 10.1016C14.4479 9.92448 14.4609 9.72917 14.4766 9.51562C14.4974 9.30208 14.5234 9.0625 14.5547 8.79688L15.7656 8.94531C15.8021 9.34635 15.888 9.6849 16.0234 9.96094C16.1589 10.2318 16.3229 10.4505 16.5156 10.6172C16.7135 10.7839 16.9323 10.9062 17.1719 10.9844C17.4167 11.0573 17.6667 11.0938 17.9219 11.0938C18.2396 11.0938 18.5208 11.0417 18.7656 10.9375C19.0156 10.8333 19.224 10.6901 19.3906 10.5078C19.5625 10.3203 19.6927 10.099 19.7812 9.84375C19.8698 9.58333 19.9141 9.29948 19.9141 8.99219C19.9141 8.26302 19.6719 7.72917 19.1875 7.39062C18.7031 7.04688 18.0182 6.875 17.1328 6.875H16.3984C16.4036 6.69271 16.4089 6.50521 16.4141 6.3125C16.4245 6.11979 16.4453 5.94792 16.4766 5.79688L17.1328 5.75781C17.4193 5.74219 17.7214 5.68229 18.0391 5.57812C18.3568 5.46875 18.6484 5.32031 18.9141 5.13281C19.1849 4.9401 19.4062 4.70833 19.5781 4.4375C19.7552 4.16667 19.8438 3.85938 19.8438 3.51562Z" fill="white"/>
</svg>
