<svg width="19" height="20" viewBox="0 0 19 20" fill="none" xmlns="http://www.w3.org/2000/svg">
<path d="M17.8327 17.1068V8.2526C17.8327 8.09089 17.795 7.9314 17.7227 7.78676C17.6504 7.64212 17.5454 7.5163 17.416 7.41927L10.1243 1.95052C9.94404 1.81529 9.72473 1.74219 9.49935 1.74219C9.27396 1.74219 9.05466 1.81529 8.87435 1.95052L1.58268 7.41927C1.45331 7.5163 1.34831 7.64212 1.27599 7.78676C1.20367 7.9314 1.16602 8.09089 1.16602 8.2526V17.1068C1.16602 17.383 1.27576 17.648 1.47111 17.8433C1.66646 18.0387 1.93142 18.1484 2.20768 18.1484H6.37435C6.65062 18.1484 6.91557 18.0387 7.11092 17.8433C7.30627 17.648 7.41602 17.383 7.41602 17.1068V13.9818C7.41602 13.7055 7.52576 13.4406 7.72111 13.2452C7.91646 13.0499 8.18141 12.9401 8.45768 12.9401H10.541C10.8173 12.9401 11.0822 13.0499 11.2776 13.2452C11.4729 13.4406 11.5827 13.7055 11.5827 13.9818V17.1068C11.5827 17.383 11.6924 17.648 11.8878 17.8433C12.0831 18.0387 12.3481 18.1484 12.6243 18.1484H16.791C17.0673 18.1484 17.3322 18.0387 17.5276 17.8433C17.7229 17.648 17.8327 17.383 17.8327 17.1068Z" stroke="white" stroke-width="2" stroke-linecap="round" stroke-linejoin="round"/>
</svg>
