<svg width="19" height="19" viewBox="0 0 19 19" fill="none" xmlns="http://www.w3.org/2000/svg">
<path d="M17.7472 16.7591V7.90495C17.7472 7.74323 17.7096 7.58374 17.6373 7.4391C17.5649 7.29446 17.4599 7.16864 17.3306 7.07161L10.0389 1.60286C9.85859 1.46763 9.63929 1.39453 9.4139 1.39453C9.18851 1.39453 8.96921 1.46763 8.7889 1.60286L1.49723 7.07161C1.36786 7.16864 1.26286 7.29446 1.19054 7.4391C1.11822 7.58374 1.08057 7.74323 1.08057 7.90495V16.7591C1.08057 17.0354 1.19031 17.3003 1.38566 17.4957C1.58101 17.691 1.84597 17.8008 2.12223 17.8008H6.2889C6.56517 17.8008 6.83012 17.691 7.02547 17.4957C7.22082 17.3003 7.33057 17.0354 7.33057 16.7591V13.6341C7.33057 13.3578 7.44031 13.0929 7.63566 12.8975C7.83101 12.7022 8.09597 12.5924 8.37223 12.5924H10.4556C10.7318 12.5924 10.9968 12.7022 11.1921 12.8975C11.3875 13.0929 11.4972 13.3578 11.4972 13.6341V16.7591C11.4972 17.0354 11.607 17.3003 11.8023 17.4957C11.9977 17.691 12.2626 17.8008 12.5389 17.8008H16.7056C16.9818 17.8008 17.2468 17.691 17.4421 17.4957C17.6375 17.3003 17.7472 17.0354 17.7472 16.7591Z" stroke="white" stroke-width="1.5" stroke-linecap="round" stroke-linejoin="round"/>
</svg>
