<svg width="24" height="24" viewBox="0 0 24 24" fill="none" xmlns="http://www.w3.org/2000/svg">
<path d="M11.9269 16.4446C13.1056 16.4446 14.2361 15.9763 15.0696 15.1428C15.9031 14.3093 16.3713 13.1788 16.3713 12.0001C16.3713 10.8214 15.9031 9.69091 15.0696 8.85741C14.2361 8.02392 13.1056 7.55566 11.9269 7.55566C10.7481 7.55566 9.61766 8.02392 8.78417 8.85741C7.95067 9.69091 7.48242 10.8214 7.48242 12.0001C7.48242 13.1788 7.95067 14.3093 8.78417 15.1428C9.61766 15.9763 10.7481 16.4446 11.9269 16.4446Z" stroke="white" stroke-width="2.5" stroke-linecap="round" stroke-linejoin="round"/>
<path d="M1.92773 16.4444V7.55556C1.92773 6.08213 2.51305 4.66905 3.55492 3.62718C4.59679 2.58532 6.00987 2 7.48329 2H16.3722C17.8456 2 19.2587 2.58532 20.3006 3.62718C21.3424 4.66905 21.9277 6.08213 21.9277 7.55556V16.4444C21.9277 17.9179 21.3424 19.3309 20.3006 20.3728C19.2587 21.4147 17.8456 22 16.3722 22H7.48329C6.00987 22 4.59679 21.4147 3.55492 20.3728C2.51305 19.3309 1.92773 17.9179 1.92773 16.4444Z" stroke="white" stroke-width="2.5"/>
<path d="M18.0391 5.89992L18.0502 5.8877" stroke="white" stroke-width="2.5" stroke-linecap="round" stroke-linejoin="round"/>
</svg>
