<svg width="21" height="16" viewBox="0 0 21 16" fill="none" xmlns="http://www.w3.org/2000/svg">
<path d="M19.25 15.5C19.25 15.5 20.5 15.5 20.5 14.25C20.5 13 19.25 9.25 14.25 9.25C9.25 9.25 8 13 8 14.25C8 15.5 9.25 15.5 9.25 15.5H19.25ZM9.2775 14.25L9.25 14.245C9.25125 13.915 9.45875 12.9575 10.2 12.095C10.89 11.2863 12.1025 10.5 14.25 10.5C16.3962 10.5 17.6087 11.2875 18.3 12.095C19.0413 12.9575 19.2475 13.9163 19.25 14.245L19.24 14.2475L19.2225 14.25H9.2775ZM14.25 6.75C14.913 6.75 15.5489 6.48661 16.0178 6.01777C16.4866 5.54893 16.75 4.91304 16.75 4.25C16.75 3.58696 16.4866 2.95107 16.0178 2.48223C15.5489 2.01339 14.913 1.75 14.25 1.75C13.587 1.75 12.9511 2.01339 12.4822 2.48223C12.0134 2.95107 11.75 3.58696 11.75 4.25C11.75 4.91304 12.0134 5.54893 12.4822 6.01777C12.9511 6.48661 13.587 6.75 14.25 6.75ZM18 4.25C18 4.74246 17.903 5.23009 17.7146 5.68506C17.5261 6.14003 17.2499 6.55343 16.9017 6.90165C16.5534 7.24987 16.14 7.52609 15.6851 7.71455C15.2301 7.903 14.7425 8 14.25 8C13.7575 8 13.2699 7.903 12.8149 7.71455C12.36 7.52609 11.9466 7.24987 11.5983 6.90165C11.2501 6.55343 10.9739 6.14003 10.7855 5.68506C10.597 5.23009 10.5 4.74246 10.5 4.25C10.5 3.25544 10.8951 2.30161 11.5983 1.59835C12.3016 0.895088 13.2554 0.5 14.25 0.5C15.2446 0.5 16.1984 0.895088 16.9017 1.59835C17.6049 2.30161 18 3.25544 18 4.25ZM9.17 9.6C8.6697 9.44364 8.15438 9.34016 7.6325 9.29125C7.33922 9.26265 7.04467 9.24888 6.75 9.25C1.75 9.25 0.5 13 0.5 14.25C0.5 15.0833 0.916667 15.5 1.75 15.5H7.02C6.83478 15.1097 6.74237 14.6819 6.75 14.25C6.75 12.9875 7.22125 11.6975 8.1125 10.62C8.41625 10.2525 8.77 9.90875 9.17 9.6ZM6.65 10.5C5.91066 11.6118 5.51106 12.9148 5.5 14.25H1.75C1.75 13.925 1.955 12.9625 2.7 12.095C3.38125 11.3 4.565 10.525 6.65 10.5013V10.5ZM2.375 4.875C2.375 3.88044 2.77009 2.92661 3.47335 2.22335C4.17661 1.52009 5.13044 1.125 6.125 1.125C7.11956 1.125 8.07339 1.52009 8.77665 2.22335C9.47991 2.92661 9.875 3.88044 9.875 4.875C9.875 5.86956 9.47991 6.82339 8.77665 7.52665C8.07339 8.22991 7.11956 8.625 6.125 8.625C5.13044 8.625 4.17661 8.22991 3.47335 7.52665C2.77009 6.82339 2.375 5.86956 2.375 4.875ZM6.125 2.375C5.46196 2.375 4.82607 2.63839 4.35723 3.10723C3.88839 3.57607 3.625 4.21196 3.625 4.875C3.625 5.53804 3.88839 6.17393 4.35723 6.64277C4.82607 7.11161 5.46196 7.375 6.125 7.375C6.78804 7.375 7.42393 7.11161 7.89277 6.64277C8.36161 6.17393 8.625 5.53804 8.625 4.875C8.625 4.21196 8.36161 3.57607 7.89277 3.10723C7.42393 2.63839 6.78804 2.375 6.125 2.375Z" fill="white"/>
</svg>
