<svg width="58" height="57" viewBox="0 0 58 57" fill="none" xmlns="http://www.w3.org/2000/svg">
<g opacity="0.7" clip-path="url(#clip0_608_5340)">
<path d="M28.7598 57C44.4988 57 57.2598 44.239 57.2598 28.5C57.2598 12.761 44.4988 6.51379e-06 28.7598 5.13785e-06C13.0208 3.7619e-06 0.259766 12.761 0.259764 28.5C0.259763 44.239 13.0207 57 28.7598 57ZM12.8051 25.5359L34.7576 7.64685C35.4673 7.06934 36.3231 6.78406 37.172 6.78406C38.2853 6.78406 39.3846 7.26416 40.1431 8.19654C41.479 9.83167 41.2355 12.2461 39.5934 13.582L21.2799 28.507L39.5934 43.4319C41.2285 44.7678 41.479 47.1753 40.1431 48.8174C38.8071 50.4595 36.3997 50.703 34.7576 49.3671L12.8051 31.478C11.9144 30.7544 11.3926 29.662 11.3926 28.5139C11.3926 27.3658 11.9075 26.2734 12.8051 25.5498L12.8051 25.5359Z" fill="#F2F2F2"/>
</g>
<defs>
<clipPath id="clip0_608_5340">
<rect width="57" height="57" fill="white" transform="translate(57.2598 57) rotate(-180)"/>
</clipPath>
</defs>
</svg>
