<svg width="13" height="13" viewBox="0 0 13 13" fill="none" xmlns="http://www.w3.org/2000/svg">
<path fill-rule="evenodd" clip-rule="evenodd" d="M0.292787 0.79302C0.480314 0.605549 0.734622 0.500234 0.999786 0.500234C1.26495 0.500234 1.51926 0.605549 1.70679 0.79302L5.99979 5.08602L10.2928 0.79302C10.385 0.69751 10.4954 0.621328 10.6174 0.568919C10.7394 0.51651 10.8706 0.488924 11.0034 0.48777C11.1362 0.486616 11.2678 0.511917 11.3907 0.562198C11.5136 0.612479 11.6253 0.686732 11.7192 0.780625C11.8131 0.874518 11.8873 0.98617 11.9376 1.10907C11.9879 1.23196 12.0132 1.36364 12.012 1.49642C12.0109 1.6292 11.9833 1.76042 11.9309 1.88242C11.8785 2.00443 11.8023 2.11477 11.7068 2.20702L7.41379 6.50002L11.7068 10.793C11.8889 10.9816 11.9897 11.2342 11.9875 11.4964C11.9852 11.7586 11.88 12.0094 11.6946 12.1948C11.5092 12.3802 11.2584 12.4854 10.9962 12.4877C10.734 12.49 10.4814 12.3892 10.2928 12.207L5.99979 7.91402L1.70679 12.207C1.51818 12.3892 1.26558 12.49 1.00339 12.4877C0.741188 12.4854 0.490376 12.3802 0.304968 12.1948C0.11956 12.0094 0.0143906 11.7586 0.0121121 11.4964C0.00983372 11.2342 0.110629 10.9816 0.292787 10.793L4.58579 6.50002L0.292787 2.20702C0.105316 2.01949 0 1.76518 0 1.50002C0 1.23486 0.105316 0.980548 0.292787 0.79302Z" fill="white"/>
</svg>
