<svg width="21" height="20" viewBox="0 0 21 20" fill="none" xmlns="http://www.w3.org/2000/svg">
<path d="M2.37861 1.96857H6.79796L8.2222 5.52972L5.93378 7.05537C5.79902 7.14528 5.68853 7.26707 5.61212 7.40992C5.53572 7.55278 5.49575 7.71229 5.49578 7.87429C5.49873 7.96682 5.49578 7.87528 5.49578 7.87528V7.89595C5.49636 7.93996 5.49833 7.98395 5.50168 8.02784C5.50759 8.10855 5.51743 8.21781 5.53613 8.35266C5.57452 8.61841 5.64834 8.98457 5.79204 9.41568C6.08142 10.2819 6.64835 11.403 7.7527 12.5073C8.85705 13.6117 9.97813 14.1786 10.8433 14.468C11.2754 14.6117 11.6406 14.6846 11.9083 14.7239C12.0594 14.745 12.2115 14.7582 12.364 14.7633L12.3768 14.7643H12.3847C12.3847 14.7643 12.4949 14.7584 12.3856 14.7643C12.5684 14.7642 12.7475 14.7132 12.9029 14.6171C13.0583 14.521 13.1839 14.3835 13.2656 14.22L13.925 12.901L18.2912 13.6294V17.8815C16.2134 18.1817 10.6012 18.478 6.19165 14.0684C1.78214 9.6588 2.07742 4.04542 2.37861 1.96857ZM7.53616 8.35266L9.31473 7.16757C9.69047 6.91695 9.9686 6.54473 10.1025 6.11337C10.2363 5.682 10.2178 5.21772 10.05 4.7984L8.62574 1.23725C8.47959 0.871985 8.22735 0.558892 7.90156 0.33836C7.57577 0.117828 7.19137 -2.63724e-05 6.79796 4.42655e-09H2.32743C1.43273 4.42655e-09 0.591182 0.621085 0.444526 1.59159C0.109876 3.79836 -0.34387 10.3163 4.7999 15.4602C9.94368 20.6041 16.4615 20.1493 18.6682 19.8157C19.6387 19.668 20.2598 18.8274 20.2598 17.9327V13.6294C20.2598 13.1634 20.0946 12.7125 19.7934 12.3569C19.4922 12.0013 19.0747 11.7641 18.6151 11.6874L14.2489 10.96C13.8336 10.8907 13.407 10.9564 13.0318 11.1473C12.6566 11.3383 12.3525 11.6445 12.1642 12.0211L11.8236 12.7032C11.7032 12.6735 11.584 12.6391 11.4663 12.5999C10.8561 12.3971 10.0086 11.9798 9.14445 11.1155C8.28027 10.2513 7.86294 9.40387 7.66018 8.79263C7.61176 8.64814 7.5707 8.5013 7.53715 8.35266H7.53616Z" fill="white"/>
</svg>
