<svg width="58" height="57" viewBox="0 0 58 57" fill="none" xmlns="http://www.w3.org/2000/svg">
<g opacity="0.7" clip-path="url(#clip0_608_5338)">
<path d="M28.7598 0C13.0208 0 0.259766 12.761 0.259766 28.5C0.259766 44.239 13.0208 57 28.7598 57C44.4988 57 57.2598 44.239 57.2598 28.5C57.2598 12.761 44.4988 0 28.7598 0ZM44.7145 31.4641L22.762 49.3531C22.0522 49.9307 21.1964 50.2159 20.3475 50.2159C19.2343 50.2159 18.1349 49.7358 17.3765 48.8035C16.0405 47.1683 16.2841 44.7539 17.9261 43.418L36.2396 28.493L17.9261 13.5681C16.291 12.2322 16.0405 9.82471 17.3765 8.18262C18.7124 6.54053 21.1199 6.297 22.762 7.63293L44.7145 25.522C45.6051 26.2456 46.127 27.338 46.127 28.4861C46.127 29.6342 45.6121 30.7266 44.7145 31.4502V31.4641Z" fill="#F2F2F2"/>
</g>
<defs>
<clipPath id="clip0_608_5338">
<rect width="57" height="57" fill="white" transform="translate(0.259766)"/>
</clipPath>
</defs>
</svg>
