<svg width="71" height="69" viewBox="0 0 71 69" fill="none" xmlns="http://www.w3.org/2000/svg">
<g clip-path="url(#clip0_608_5250)">
<path d="M3.11328 15.6266C5.79006 23.4136 10.4321 30.9285 16.9817 37.3629C23.5314 43.7973 30.6541 48.0365 38.2921 50.7077L45.0802 44.0391L9.63985 9.21484L3.11328 15.6266Z" fill="#E6E8EA"/>
<path d="M51.346 35.9588C48.5846 28.9615 44.2233 22.2551 38.2967 16.429C31.7433 9.99081 24.0975 5.43423 16.171 2.80078L9.64062 9.21627L45.0848 44.0367L45.6733 43.4587L33.1163 31.1226L51.3499 35.9588H51.346Z" fill="#D1D3D4"/>
<path d="M43.0449 21.6973C47.2216 26.9264 50.3061 32.6429 52.279 38.5144C52.5098 38.095 52.7944 37.7096 53.1367 37.3733C56.2365 34.328 62.99 35.8469 69.3704 40.6302C69.7819 40.94 70.3703 40.5697 70.2357 40.0748C69.2089 36.357 66.5705 32.0573 62.6631 28.2186C55.5365 21.2175 46.8486 18.3573 43.0449 21.6973Z" fill="#F30700"/>
<path d="M22.3453 42.0352C27.6681 46.1383 33.487 49.1685 39.4636 51.1068C39.0367 51.3335 38.6444 51.613 38.3021 51.9493C35.2023 54.9946 36.7484 61.6292 41.6173 67.8974C41.9327 68.3016 41.5558 68.8797 41.052 68.7475C37.2676 67.7387 32.8909 65.1468 28.9834 61.3081C21.8569 54.307 18.9455 45.7719 22.3453 42.0352Z" fill="#F30700"/>
<path d="M46.731 45.6523L45.085 44.0352L38.2969 50.7038C39.1199 50.9909 39.9429 51.263 40.7698 51.5086L46.731 45.6523Z" fill="#B5C3C4"/>
<path d="M46.73 45.6527L52.699 39.7888C52.449 38.9765 52.1721 38.1679 51.8798 37.3594L45.084 44.0356L46.73 45.6527Z" fill="#979CA4"/>
<path d="M40.7637 51.5126C41.2021 51.641 41.6405 51.7657 42.079 51.8866C42.2674 51.9395 42.4713 51.8866 42.6097 51.7468L47.7671 46.6802L46.7249 45.6562L40.7637 51.5126Z" fill="#979CA4"/>
<path d="M47.7727 46.6807L52.9378 41.6065C53.0763 41.4705 53.1301 41.2703 53.0801 41.0851C52.9609 40.6544 52.834 40.2237 52.6994 39.793L46.7305 45.6568L47.7727 46.6807Z" fill="#717675"/>
<path d="M43.0468 21.6981C47.2235 26.9272 50.308 32.6437 52.2809 38.5151C52.5117 38.0957 52.7963 37.7103 53.1386 37.3741C53.4809 37.0378 53.8462 36.7771 54.2577 36.5542C51.6079 31.1702 47.9735 26.0355 43.3776 21.4336C43.2622 21.5167 43.1507 21.6036 43.043 21.6981H43.0468Z" fill="#BB0300"/>
<path d="M22.3473 42.0389C27.6701 46.1421 33.489 49.1723 39.4656 51.1105C39.0387 51.3372 38.6464 51.6168 38.3042 51.9531C37.9619 52.2894 37.6965 52.6483 37.4696 53.0526C31.9891 50.4493 26.7625 46.8789 22.0781 42.3639C22.1627 42.2505 22.2512 42.1409 22.3473 42.0352V42.0389Z" fill="#BB0300"/>
<path d="M51.3449 35.9573L33.1113 31.1211L45.6683 43.4571L51.8757 37.359C51.7065 36.8905 51.5295 36.422 51.3449 35.9535V35.9573Z" fill="#BEBFC1"/>
<path d="M32.7293 31.5013L32.3295 31.8941C32.1163 32.1036 32.1163 32.4433 32.3295 32.6528L53.8516 53.7961C54.0649 54.0056 54.4106 54.0056 54.6239 53.7961L55.0237 53.4034C55.237 53.1939 55.237 52.8542 55.0237 52.6447L33.5016 31.5013C33.2884 31.2918 32.9426 31.2918 32.7293 31.5013Z" fill="#F30700"/>
<path d="M19.9082 26.4018C23.8993 26.4018 27.1347 23.2233 27.1347 19.3025C27.1347 15.3816 23.8993 12.2031 19.9082 12.2031C15.9171 12.2031 12.6816 15.3816 12.6816 19.3025C12.6816 23.2233 15.9171 26.4018 19.9082 26.4018Z" fill="#F30700"/>
<path d="M24.1194 15.1675C21.7926 12.8817 18.0236 12.8817 15.6968 15.1675C15.2776 15.5793 14.9353 16.0403 14.6699 16.5277L25.6885 20.6951C26.1654 18.7758 25.6462 16.6675 24.1194 15.1675Z" fill="#0FAAEF"/>
<path d="M15.6962 23.4383C18.023 25.7242 21.792 25.7242 24.1188 23.4383C24.3303 23.2305 24.5111 23.0114 24.6842 22.7847L13.9809 18.7344C13.8155 20.4157 14.3886 22.1499 15.6962 23.4383Z" fill="#00AAED"/>
<path d="M14.6708 16.5234C14.2901 17.2186 14.0593 17.9705 13.9824 18.7337L24.6857 22.784C25.1703 22.1455 25.5049 21.4314 25.6856 20.6909L14.667 16.5234H14.6708Z" fill="#1BBDEF"/>
<path d="M0.259766 0.549317C0.344376 5.58952 1.38663 10.6033 3.11346 15.6321L9.64002 9.22043L0.421295 0.160156C0.321301 0.258391 0.259766 0.398187 0.259766 0.549317Z" fill="#F30700"/>
<path d="M0.818067 0C0.66423 0 0.525776 0.0566739 0.425781 0.158687L9.64451 9.21518L16.1711 2.79969C11.0521 1.10325 5.94471 0.0793435 0.818067 0Z" fill="#BB0300"/>
</g>
<defs>
<clipPath id="clip0_608_5250">
<rect width="70" height="68.7719" fill="white" transform="translate(0.259766)"/>
</clipPath>
</defs>
</svg>
