<svg width="15" height="20" viewBox="0 0 15 20" fill="none" xmlns="http://www.w3.org/2000/svg">
<path d="M3.6 0.900391C2.16594 0.900391 1 2.06633 1 3.50039V16.5004C1 17.9345 2.16594 19.1004 3.6 19.1004H8.8C11.6722 19.1004 14 16.7726 14 13.9004C14 12.0113 12.9925 10.3538 11.4812 9.44383C12.2409 8.53789 12.7 7.37195 12.7 6.10039C12.7 3.2282 10.3722 0.900391 7.5 0.900391H3.6ZM7.5 8.70039H3.6V3.50039H7.5C8.93406 3.50039 10.1 4.66633 10.1 6.10039C10.1 7.53445 8.93406 8.70039 7.5 8.70039ZM3.6 11.3004H8.8C10.2341 11.3004 11.4 12.4663 11.4 13.9004C11.4 15.3345 10.2341 16.5004 8.8 16.5004H3.6V11.3004Z" fill="white" stroke="#1F1632" stroke-width="0.7"/>
</svg>
